<svg version="1" xmlns="http://www.w3.org/2000/svg" width="346.667" height="346.667" viewBox="0 0 260.000000 260.000000"><path d="M0 130v130h260V0H0v130zM94.7 23.8c6.4 8.1 14.5 20.5 17.8 27.4 1.9 4 4.1 8.4 4.9 9.8 5.9 10.6 9.1 20.3 14.1 42.3 2.9 13.2 1.5 42.1-3.2 62.1-2.9 12.7-4.6 16.4-10 22.5l-3.9 4.4-3.9-5.8c-2.2-3.2-4.7-6.8-5.5-8.1-5-7.6-7.9-11.4-11.7-15.4l-4.3-4.5v-69-69.7c0-1.5 2.9.5 5.7 4zM77 48.2c2 2.1 2 3.3 2 59.7 0 65.3-.8 59.3 8.8 68.7 5.2 5 14.2 16.9 14.2 18.7 0 .5 1.6 3.1 3.5 5.7s5.1 8.7 7 13.4c1.9 4.7 4.2 9.8 5.2 11.3 3 4.5-.9 1.6-5.5-4.2-6.3-8-18-19.3-22-21.4-2-1.1-5.4-3.5-7.5-5.4-2.1-1.9-5.9-4.6-8.5-5.9l-4.7-2.4-.3-71.7-.2-71.8 3 1.6c1.6.8 3.9 2.5 5 3.7zm129.5-1.6c-1.1.8-2.7 2-3.5 2.7-.9.7-2.2 1.7-2.9 2.2-3 1.8.5-2.4 3.9-4.8 3.7-2.5 6-2.6 2.5-.1zM58.3 69.7c.4.2.7 28 .7 61.6 0 33.7.3 62.2.6 63.4.4 1.6 3.2 3.5 9 6.5 4.6 2.3 11.1 6.5 14.4 9.4 3.3 2.9 6.8 5.5 7.8 5.8 1.1.4 4.7 3.9 8.1 7.9 3.4 4 7 7.8 8.1 8.5 1 .6 2.4 2.1 3.1 3.3l1.1 2.2-3.3-2c-12.1-7.2-15.7-9.2-17.9-9.8-1.4-.4-5.9-2.5-10-4.6-7.1-3.7-17.5-6.9-26.7-8.4l-4.3-.7v-145l4.3.7c2.3.4 4.5.9 5 1.2zM228 139.9c0 67.7-.1 72-1.7 72.5-1 .2-3.7.8-6.1 1.1-5.7.9-19.2 5.6-27 9.4-3.4 1.7-6.6 3.1-7 3.1-.4 0-3.9 2-7.8 4.4-6.8 4.2-11.4 6.3-11.4 5.2 0-.3 1.4-1.3 3-2.1 1.7-.9 5.8-4.9 9.1-9 3.4-4.1 6.9-7.7 7.8-8 .9-.2 2.9-1.7 4.6-3.2 3.9-3.7 8.1-6.5 17-11.3 5.7-3.2 7.6-4.8 8.4-7.3.8-2.2.9-20.6.5-63.8l-.7-60.8 2.4-.5c5.4-1.2 6.5-1.4 7.7-1.5.9-.1 1.2 14.9 1.2 71.8z"/></svg>